<?xml version="1.0" encoding="utf-8"?>
<!-- Generator: Adobe Illustrator 16.0.0, SVG Export Plug-In . SVG Version: 6.00 Build 0)  -->
<!DOCTYPE svg PUBLIC "-//W3C//DTD SVG 1.1//EN" "http://www.w3.org/Graphics/SVG/1.1/DTD/svg11.dtd">
<svg version="1.1" id="Calque_1" xmlns="http://www.w3.org/2000/svg" xmlns:xlink="http://www.w3.org/1999/xlink" x="0px" y="0px"
	 width="429.813px" height="222.361px" viewBox="0 0 429.813 222.361" enable-background="new 0 0 429.813 222.361"
	 xml:space="preserve">
<rect x="285.078" y="106.162" stroke="#000000" stroke-width="3" stroke-miterlimit="10" width="71.667" height="5"/>
<path stroke="#000000" stroke-width="3" stroke-miterlimit="10" d="M235.746,164.662v5h174.883c-0.961-1.432-1.131-3.382-0.514-5
	H235.746z"/>
<path d="M21.745,61.52V42.662c-0.028,0-0.055,0.004-0.083,0.004c-0.232,0-0.454-0.017-0.67-0.042h-4.247v23.237
	C18.461,64.47,20.165,63.065,21.745,61.52z"/>
<polygon points="16.745,147.894 16.745,171.162 21.745,171.162 21.745,142.894 "/>
<path stroke="#000000" stroke-width="3" stroke-miterlimit="10" d="M182.495,164.662H20.781c0.013,1.668,0.013,3.336-0.015,5
	h161.729V164.662z"/>
<path stroke="#000000" stroke-width="3" stroke-miterlimit="10" d="M181.96,48.501c1.446-1.446,2.893-2.893,4.34-4.339H20.781
	c0.013,1.668,0.013,3.336-0.015,5h160.633C181.564,48.938,181.745,48.716,181.96,48.501z"/>
<polygon points="409.745,147.894 409.745,171.162 414.745,171.162 414.745,142.894 "/>
<path d="M238.245,62.02V43.162c-0.028,0-0.055,0.004-0.083,0.004c-0.232,0-0.454-0.017-0.67-0.042h-4.247v23.237
	C234.961,64.97,236.665,63.565,238.245,62.02z"/>
<rect x="22.745" y="106.162" stroke="#000000" stroke-width="3" stroke-miterlimit="10" width="71.667" height="5"/>
<path stroke="#000000" stroke-width="3" stroke-miterlimit="10" d="M399.339,48.501c1.446-1.447,2.893-2.894,4.34-4.34H238.16
	c0.013,1.668,0.013,3.336-0.015,5h160.633C398.943,48.937,399.124,48.716,399.339,48.501z"/>
</svg>
